<svg width="24" height="25" viewBox="0 0 24 25" fill="none" xmlns="http://www.w3.org/2000/svg">
<path d="M12.0002 16.8162C13.1335 16.8162 14.0959 16.4202 14.8872 15.6282C15.6792 14.8369 16.0752 13.8745 16.0752 12.7412C16.0752 11.6079 15.6792 10.6455 14.8872 9.85421C14.0959 9.06221 13.1335 8.66621 12.0002 8.66621C10.8669 8.66621 9.90453 9.06221 9.1132 9.85421C8.3212 10.6455 7.9252 11.6079 7.9252 12.7412C7.9252 13.8745 8.3212 14.8369 9.1132 15.6282C9.90453 16.4202 10.8669 16.8162 12.0002 16.8162ZM12.0002 15.4412C11.2502 15.4412 10.6129 15.1785 10.0882 14.6532C9.56286 14.1285 9.3002 13.4912 9.3002 12.7412C9.3002 11.9912 9.56286 11.3535 10.0882 10.8282C10.6129 10.3035 11.2502 10.0412 12.0002 10.0412C12.7502 10.0412 13.3879 10.3035 13.9132 10.8282C14.4379 11.3535 14.7002 11.9912 14.7002 12.7412C14.7002 13.4912 14.4379 14.1285 13.9132 14.6532C13.3879 15.1785 12.7502 15.4412 12.0002 15.4412ZM12.0002 19.7412C9.81686 19.7412 7.81253 19.1662 5.9872 18.0162C4.16253 16.8662 2.76686 15.3079 1.8002 13.3412C1.76686 13.2745 1.74186 13.1869 1.7252 13.0782C1.70853 12.9702 1.7002 12.8579 1.7002 12.7412C1.7002 12.6245 1.70853 12.5119 1.7252 12.4032C1.74186 12.2952 1.76686 12.2079 1.8002 12.1412C2.76686 10.1745 4.16253 8.61621 5.9872 7.46621C7.81253 6.31621 9.81686 5.74121 12.0002 5.74121C14.1835 5.74121 16.1875 6.31621 18.0122 7.46621C19.8375 8.61621 21.2335 10.1745 22.2002 12.1412C22.2335 12.2079 22.2585 12.2952 22.2752 12.4032C22.2919 12.5119 22.3002 12.6245 22.3002 12.7412C22.3002 12.8579 22.2919 12.9702 22.2752 13.0782C22.2585 13.1869 22.2335 13.2745 22.2002 13.3412C21.2335 15.3079 19.8375 16.8662 18.0122 18.0162C16.1875 19.1662 14.1835 19.7412 12.0002 19.7412ZM12.0002 18.2412C13.8835 18.2412 15.6129 17.7452 17.1882 16.7532C18.7629 15.7619 19.9669 14.4245 20.8002 12.7412C19.9669 11.0579 18.7629 9.72021 17.1882 8.72821C15.6129 7.73688 13.8835 7.24121 12.0002 7.24121C10.1169 7.24121 8.38753 7.73688 6.81219 8.72821C5.23753 9.72021 4.03353 11.0579 3.2002 12.7412C4.03353 14.4245 5.23753 15.7619 6.81219 16.7532C8.38753 17.7452 10.1169 18.2412 12.0002 18.2412Z" fill="#1C1B1F"/>
</svg>
