<svg width="24" height="25" viewBox="0 0 24 25" fill="none" xmlns="http://www.w3.org/2000/svg">
<path d="M15.7752 13.1913L14.6502 12.0663C14.8002 11.233 14.5629 10.4873 13.9382 9.82931C13.3129 9.17064 12.5502 8.91631 11.6502 9.06631L10.5252 7.94131C10.7585 7.84131 10.9919 7.76631 11.2252 7.71631C11.4585 7.66631 11.7169 7.64131 12.0002 7.64131C13.1335 7.64131 14.0959 8.03731 14.8872 8.82931C15.6792 9.62064 16.0752 10.583 16.0752 11.7163C16.0752 11.9996 16.0502 12.262 16.0002 12.5033C15.9502 12.7453 15.8752 12.9746 15.7752 13.1913ZM18.9502 16.2913L17.8502 15.2663C18.4835 14.783 19.0462 14.2536 19.5382 13.6783C20.0295 13.1036 20.4502 12.4496 20.8002 11.7163C19.9669 10.033 18.7709 8.69531 17.2122 7.70331C15.6542 6.71198 13.9169 6.21631 12.0002 6.21631C11.5169 6.21631 11.0419 6.24964 10.5752 6.31631C10.1085 6.38298 9.6502 6.48298 9.2002 6.61631L8.0252 5.44131C8.65853 5.19131 9.30453 5.00798 9.9632 4.89131C10.6212 4.77464 11.3002 4.71631 12.0002 4.71631C14.2169 4.71631 16.2375 5.30364 18.0622 6.47831C19.8875 7.65364 21.2669 9.19964 22.2002 11.1163C22.2335 11.183 22.2585 11.2703 22.2752 11.3783C22.2919 11.487 22.3002 11.5996 22.3002 11.7163C22.3002 11.833 22.2919 11.9453 22.2752 12.0533C22.2585 12.162 22.2335 12.2496 22.2002 12.3163C21.8169 13.0996 21.3542 13.8246 20.8122 14.4913C20.2709 15.158 19.6502 15.758 18.9502 16.2913ZM19.2252 21.5663L15.7252 18.0663C15.2085 18.2663 14.6379 18.4246 14.0132 18.5413C13.3879 18.658 12.7169 18.7163 12.0002 18.7163C9.76686 18.7163 7.74186 18.129 5.9252 16.9543C4.10853 15.779 2.73353 14.233 1.8002 12.3163C1.76686 12.2496 1.74186 12.162 1.7252 12.0533C1.70853 11.9453 1.7002 11.833 1.7002 11.7163C1.7002 11.5996 1.70853 11.4913 1.7252 11.3913C1.74186 11.2913 1.76686 11.1996 1.8002 11.1163C2.18353 10.3496 2.64186 9.64131 3.1752 8.99131C3.70853 8.34131 4.28353 7.76631 4.9002 7.26631L2.6502 4.99131C2.5002 4.84131 2.4252 4.66631 2.4252 4.46631C2.4252 4.26631 2.5002 4.08298 2.6502 3.91631C2.8002 3.78298 2.97953 3.71631 3.1882 3.71631C3.3962 3.71631 3.56686 3.78298 3.7002 3.91631L20.3002 20.5163C20.4335 20.6496 20.5045 20.8163 20.5132 21.0163C20.5212 21.2163 20.4502 21.3996 20.3002 21.5663C20.1502 21.6996 19.9712 21.7663 19.7632 21.7663C19.5545 21.7663 19.3752 21.6996 19.2252 21.5663ZM5.9502 8.31631C5.41686 8.73298 4.90453 9.23731 4.4132 9.82931C3.9212 10.4206 3.51686 11.0496 3.2002 11.7163C4.03353 13.3996 5.2292 14.737 6.7872 15.7283C8.34586 16.7203 10.0835 17.2163 12.0002 17.2163C12.4502 17.2163 12.9002 17.1786 13.3502 17.1033C13.8002 17.0286 14.1835 16.9496 14.5002 16.8663L13.2502 15.5663C13.0669 15.633 12.8669 15.687 12.6502 15.7283C12.4335 15.7703 12.2169 15.7913 12.0002 15.7913C10.8669 15.7913 9.90453 15.3953 9.1132 14.6033C8.3212 13.812 7.9252 12.8496 7.9252 11.7163C7.9252 11.5163 7.9462 11.3036 7.9882 11.0783C8.02953 10.8536 8.08353 10.6496 8.1502 10.4663L5.9502 8.31631Z" fill="#1C1B1F"/>
</svg>
